# xmcd CD database file
#
# Track frame offsets:
#	150
#	32530
#	50642
#	78262
#	95907
#	122245
#	149332
#	162125
#	180727
#
# Disc length: 2627 seconds
#
# Revision: 0
# Processed by: cddbd v1.5.1PL2 Copyright (c) Steve Scherf et al.
# Submitted via: CDex 1.51
#
DISCID=770a4109
DTITLE=Percy Humphrey - Percy Humphrey's Crescent City Joymakers
DYEAR=1900
DGENRE=Jazz
TTITLE0=Milenburg Joys
TTITLE1=Gloryland
TTITLE2=Lonesome Road
TTITLE3=Streets Of The City
TTITLE4=Weary Blues
TTITLE5=Bucket's Got A Hole In It
TTITLE6=All The Gals Like the Way I Ride
TTITLE7=Rip Em Up Joe
TTITLE8=Climax Rag
EXTD=
EXTT0=
EXTT1=
EXTT2=
EXTT3=
EXTT4=
EXTT5=
EXTT6=
EXTT7=
EXTT8=
PLAYORDER=
